<?xml version="1.0" encoding="utf-8"?>
<?xml-stylesheet type="text/xsl" href="rss1.xsl"?>
<rss version="2.0" xmlns:atom="http://www.w3.org/2005/Atom" xmlns:content="http://purl.org/rss/1.0/modules/content/" xmlns:dc="http://purl.org/dc/elements/1.1/" xmlns:media="http://search.yahoo.com/mrss/">
<channel>
 <title>Getty</title>
 <link>http://www.gettyimg.com/</link>
 <atom:link href="http://www.gettyimg.com/" rel="self" type="application/rss+xml" />

 
                <item>
                <title><![CDATA[【Cinema Center】MOVIE - Home.Alone.2.Lost.in.New.York.1992.1080p.DSNP.WEB-DL.DDP5.1.H.264-Samuel]]></title>
                <link><![CDATA[https://sharemania.us/threads/home-alone-2-lost-in-new-york-1992-1080p-dsnp-web-dl-ddp5-1-h-264-samuel.234446/]]></link>
                <description><![CDATA[<article>
<blockquote class="messageText SelectQuoteContainer ugc baseHtml">
<div style="text-align: center"><b><span style="font-size: 26px">Home Alone 2: Lost in New York</span></b><br>
<img src="https://i.imgur.com/aJrBc49.png" class="bbCodeImage LbImage" alt="[​IMG]" data-url="https://i.imgur.com/aJrBc49.png" style=""><br>
<b><a href="https://i.imgur.com/zHOpZu2.png" target="_blank" class="externalLink" rel="nofollow">Alternate Artwork 1</a></b> | <b><a href="https://i.imgur.com/WA7oVXz.jpg" target="_blank" class="externalLink" rel="nofollow">Alternate Artwork 2</a></b> | <b><a href="https://i.imgur.com/wAM5PdF.jpg" target="_blank" class="externalLink" rel="nofollow">Alternate Artwork 3</a></b> | <b><a href="https://i.imgur.com/gQkcLUM.png" target="_blank" class="externalLink" rel="nofollow">Alternate Artwork 4</a></b> | <b><a href="https://i.imgur.com/2BStfiv.jpg" target="_blank" class="externalLink" rel="nofollow">Alternate Artwork 5</a></b> | <b><a href="https://i.imgur.com/Oz3QEIy.jpg" target="_blank" class="externalLink" rel="nofollow">Alternate Artwork 6</a></b> | <b><a href="https://i.imgur.com/Y31tWeR.jpg" target="_blank" class="externalLink" rel="nofollow">Alternate Artwork 7</a></b> | <b><a href="https://i.imgur.com/HTtiCU6.jpg" target="_blank" class="externalLink" rel="nofollow">Alternate Artwork 8</a></b> | <b><a href="https://i.imgur.com/sccHusp.png" target="_blank" class="externalLink" rel="nofollow">Alternate Artwork 9</a></b> | <b><a href="https://i.imgur.com/hPAOwXy.jpg" target="_blank" class="externalLink" rel="nofollow">Alternate Artwork 10</a></b> | <b><a href="https://i.imgur.com/Ecpq55a.jpg" target="_blank" class="externalLink" rel="nofollow">Alternate Artwork 11</a></b> | <b><a href="https://i.imgur.com/M4VMzgB.jpg" target="_blank" class="externalLink" rel="nofollow">Alternate Artwork 12</a></b> | <b><a href="https://i.imgur.com/ZlOdVlv.jpg" target="_blank" class="externalLink" rel="nofollow">Poster 1</a></b> | <b><a href="https://i.imgur.com/v6wx3qL.jpg" target="_blank" class="externalLink" rel="nofollow">Poster 2</a></b> | <b><a href="https://i.imgur.com/WVTjy6g.jpg" target="_blank" class="externalLink" rel="nofollow">Poster 3</a></b> | <b><a href="https://i.imgur.com/aLGPaEL.jpg" target="_blank" class="externalLink" rel="nofollow">Poster 4</a></b> | <b><a href="https://i.imgur.com/DXMYvRw.jpg" target="_blank" class="externalLink" rel="nofollow">Poster 5</a></b> | <b><a href="https://i.imgur.com/itaySBb.jpg" target="_blank" class="externalLink" rel="nofollow">Poster 6</a></b> | <b><a href="https://i.imgur.com/ohCxdEV.jpg" target="_blank" class="externalLink" rel="nofollow">Thumbnail 1</a></b> | <b><a href="https://i.imgur.com/uk6WVfT.jpg" target="_blank" class="externalLink" rel="nofollow">Thumbnail 2</a></b> | <b><a href="https://i.imgur.com/6UPyY0C.jpg" target="_blank" class="externalLink" rel="nofollow">Key Art</a></b><br>
<br>
<img src="https://i.imgur.com/qhRKRmw.png" class="bbCodeImage LbImage" alt="[​IMG]" data-url="https://i.imgur.com/qhRKRmw.png" style=""> <img src="https://i.imgur.com/R7cyABL.png" class="bbCodeImage LbImage" alt="[​IMG]" data-url="https://i.imgur.com/R7cyABL.png" style=""> <img src="https://i.imgur.com/aNwcs8B.png" class="bbCodeImage LbImage" alt="[​IMG]" data-url="https://i.imgur.com/aNwcs8B.png" style=""><br>
1992 • 2h 1m<br>
Family, Comedy<br>
<br>
<div class="bbCodeBlock bbCodeQuote">
<aside>
<blockquote class="quoteContainer"><div class="quote"><b><span style="font-size: 15px"><span style="font-family: 'Arial'">Description</span></span></b><br>
Kevin McCallister is home alone in New York City, but he won't be alone for long because the notorious Wet Bandits, Harry and Marv, are also in the Big Apple.</div><div class="quoteExpand">Click to expand...</div></blockquote>
</aside>
</div>
<div class="bbCodeBlock bbCodeQuote">
<aside>
<blockquote class="quoteContainer"><div class="quote"><b><span style="font-size: 15px"><span style="font-family: 'Arial'">Trailers</span></span></b><br>
<span data-s9e-mediaembed="googledrive" style="display:inline-block;width:100%;max-width:640px"><span style="display:block;overflow:hidden;position:relative;padding-bottom:75%"><iframe allowfullscreen="" loading="lazy" scrolling="no" src="//drive.google.com/file/d/17IIUCf1dDfUhM9eckM87q84LFAKKsEqn/preview" style="border:0;height:100%;left:0;position:absolute;width:100%"></iframe></span></span><br>
<b>Home Alone 2: Lost in New York</b></div><div class="quoteExpand quoteCut">Click to expand...</div></blockquote>
</aside>
</div>
<div class="bbCodeBlock bbCodeQuote">
<aside>
<blockquote class="quoteContainer"><div class="quote"><b><span style="font-size: 15px"><span style="font-family: 'Arial'">More Information</span></span></b><br>
<b>Long Description:</b><br>
Kevin McCallister is in New York City with enough money to turn the Big Apple into his own playground! But Kevin won't be alone for long. The notorious Wet Bandits, Harry and Marv, still smarting from their last encounter with Kevin, are bound for New York too, plotting a huge holiday heist. Kevin's ready to welcome them with a battery of booby traps the bumbling bandits will never forget!<br>
<b>Duration:</b> 2h 1m<br>
<b>Release Date:</b> 1992<br>
<b>Genre:</b> Family, Comedy<br>
<b>Rating:</b> <img src="https://i.imgur.com/qhRKRmw.png" class="bbCodeImage LbImage" alt="[​IMG]" data-url="https://i.imgur.com/qhRKRmw.png" style=""><br>
<b>Director:</b> Chris Columbus<br>
<b>Starring:</b> Macaulay Culkin, Joe Pesci, Daniel Stern, John Heard, Devin Ratray, Catherine O'Hara</div><div class="quoteExpand quoteCut">Click to expand...</div></blockquote>
</aside>
</div>
<div class="bbCodeBlock bbCodeQuote">
<aside>
<blockquote class="quoteContainer"><div class="quote"><b><span style="font-size: 15px">Source</span></b><br>
<img src="https://i.imgur.com/zIQLtMk.png" class="bbCodeImage LbImage" alt="[​IMG]" data-url="https://i.imgur.com/zIQLtMk.png" style=""></div><div class="quoteExpand">Click to expand...</div></blockquote>
</aside>
</div>
<div class="bbCodeBlock bbCodeQuote">
<aside>
<blockquote class="quoteContainer"><div class="quote"><b><span style="font-size: 15px">Release Name</span></b><br>
Home.Alone.2.Lost.in.New.York.1992.1080p.DSNP.WEB-DL.DDP5.1.H.264-Samuel</div><div class="quoteExpand">Click to expand...</div></blockquote>
</aside>
</div>
<div class="ToggleTriggerAnchor bbCodeSpoilerContainer">
<button type="button" class="button bbCodeSpoilerButton ToggleTrigger Tooltip JsOnly" data-target="> .SpoilerTarget"><span>Spoiler: <span class="SpoilerTitle">Media Information</span></span></button>
<div class="SpoilerTarget bbCodeSpoilerText">General<br>
Complete name : Home.Alone.2.Lost.in.New.York.1992.1080p.DSNP.WEB-DL.DDP5.1.H.264-Samuel.mkv<br>
Format : Matroska<br>
Format version : Version 4<br>
File size : 8.34 GiB<br>
Duration : 2 h 0 min<br>
Overall bit rate mode : Variable<br>
Overall bit rate : 9 947 kb/s<br>
Frame rate : 23.976 FPS<br>
Encoded date : 2023-12-22 06:55:36 UTC<br>
Writing application : mkvmerge v72.0.0 ('Minuano (Six-eight)') 64-bit<br>
Writing library : libebml v1.4.4 + libmatroska v1.7.1<br>
<br>
Video<br>
ID : 1<br>
Format : AVC<br>
Format/Info : Advanced Video Codec<br>
Format profile : High@L4<br>
Format settings : CABAC / 4 Ref Frames<br>
Format settings, CABAC : Yes<br>
Format settings, Reference frames : 4 frames<br>
Codec ID : V_MPEG4/ISO/AVC<br>
Duration : 2 h 0 min<br>
Bit rate mode : Variable<br>
Bit rate : 6 872 kb/s<br>
Maximum bit rate : 12.7 Mb/s<br>
Width : 1 920 pixels<br>
Height : 1 080 pixels<br>
Display aspect ratio : 16:9<br>
Frame rate mode : Constant<br>
Frame rate : 23.976 (24000/1001) FPS<br>
Color space : YUV<br>
Chroma subsampling : 4:2:0<br>
Bit depth : 8 bits<br>
Scan type : Progressive<br>
Bits/(Pixel*Frame) : 0.138<br>
Time code of first frame : 00:00:00;00<br>
Stream size : 5.76 GiB (69%)<br>
Default : Yes<br>
Forced : No<br>
Color range : Limited<br>
Color primaries : BT.709<br>
Transfer characteristics : BT.709<br>
Matrix coefficients : BT.709<br>
<br>
Audio #1<br>
ID : 2<br>
Format : E-AC-3<br>
Format/Info : Enhanced AC-3<br>
Commercial name : Dolby Digital Plus<br>
Codec ID : A_EAC3<br>
Duration : 2 h 0 min<br>
Bit rate mode : Constant<br>
Bit rate : 256 kb/s<br>
Channel(s) : 6 channels<br>
Channel layout : L R C LFE Ls Rs<br>
Sampling rate : 48.0 kHz<br>
Frame rate : 31.250 FPS (1536 SPF)<br>
Compression mode : Lossy<br>
Stream size : 220 MiB (3%)<br>
Language : English<br>
Service kind : Complete Main<br>
Default : Yes<br>
Forced : No<br>
<br>
Audio #2<br>
ID : 3<br>
Format : E-AC-3<br>
Format/Info : Enhanced AC-3<br>
Commercial name : Dolby Digital Plus<br>
Codec ID : A_EAC3<br>
Duration : 2 h 0 min<br>
Bit rate mode : Constant<br>
Bit rate : 256 kb/s<br>
Channel(s) : 6 channels<br>
Channel layout : L R C LFE Ls Rs<br>
Sampling rate : 48.0 kHz<br>
Frame rate : 31.250 FPS (1536 SPF)<br>
Compression mode : Lossy<br>
Stream size : 220 MiB (3%)<br>
Title : Audio Description<br>
Language : English<br>
Service kind : Complete Main<br>
Default : No<br>
Forced : No<br>
<br>
Audio #3<br>
ID : 4<br>
Format : E-AC-3<br>
Format/Info : Enhanced AC-3<br>
Commercial name : Dolby Digital Plus<br>
Codec ID : A_EAC3<br>
Duration : 2 h 0 min<br>
Bit rate mode : Constant<br>
Bit rate : 256 kb/s<br>
Channel(s) : 6 channels<br>
Channel layout : L R C LFE Ls Rs<br>
Sampling rate : 48.0 kHz<br>
Frame rate : 31.250 FPS (1536 SPF)<br>
Compression mode : Lossy<br>
Stream size : 220 MiB (3%)<br>
Language : Czech<br>
Service kind : Complete Main<br>
Default : No<br>
Forced : No<br>
<br>
Audio #4<br>
ID : 5<br>
Format : E-AC-3<br>
Format/Info : Enhanced AC-3<br>
Commercial name : Dolby Digital Plus<br>
Codec ID : A_EAC3<br>
Duration : 2 h 0 min<br>
Bit rate mode : Constant<br>
Bit rate : 256 kb/s<br>
Channel(s) : 6 channels<br>
Channel layout : L R C LFE Ls Rs<br>
Sampling rate : 48.0 kHz<br>
Frame rate : 31.250 FPS (1536 SPF)<br>
Compression mode : Lossy<br>
Stream size : 220 MiB (3%)<br>
Language : German<br>
Service kind : Complete Main<br>
Default : No<br>
Forced : No<br>
<br>
Audio #5<br>
ID : 6<br>
Format : E-AC-3<br>
Format/Info : Enhanced AC-3<br>
Commercial name : Dolby Digital Plus<br>
Codec ID : A_EAC3<br>
Duration : 2 h 0 min<br>
Bit rate mode : Constant<br>
Bit rate : 256 kb/s<br>
Channel(s) : 6 channels<br>
Channel layout : L R C LFE Ls Rs<br>
Sampling rate : 48.0 kHz<br>
Frame rate : 31.250 FPS (1536 SPF)<br>
Compression mode : Lossy<br>
Stream size : 220 MiB (3%)<br>
Title : Latin American<br>
Language : Spanish<br>
Service kind : Complete Main<br>
Default : No<br>
Forced : No<br>
<br>
Audio #6<br>
ID : 7<br>
Format : E-AC-3<br>
Format/Info : Enhanced AC-3<br>
Commercial name : Dolby Digital Plus<br>
Codec ID : A_EAC3<br>
Duration : 2 h 0 min<br>
Bit rate mode : Constant<br>
Bit rate : 256 kb/s<br>
Channel(s) : 6 channels<br>
Channel layout : L R C LFE Ls Rs<br>
Sampling rate : 48.0 kHz<br>
Frame rate : 31.250 FPS (1536 SPF)<br>
Compression mode : Lossy<br>
Stream size : 220 MiB (3%)<br>
Title : European<br>
Language : Spanish<br>
Service kind : Complete Main<br>
Default : No<br>
Forced : No<br>
<br>
Audio #7<br>
ID : 8<br>
Format : E-AC-3<br>
Format/Info : Enhanced AC-3<br>
Commercial name : Dolby Digital Plus<br>
Codec ID : A_EAC3<br>
Duration : 2 h 0 min<br>
Bit rate mode : Constant<br>
Bit rate : 256 kb/s<br>
Channel(s) : 6 channels<br>
Channel layout : L R C LFE Ls Rs<br>
Sampling rate : 48.0 kHz<br>
Frame rate : 31.250 FPS (1536 SPF)<br>
Compression mode : Lossy<br>
Stream size : 220 MiB (3%)<br>
Language : French<br>
Service kind : Complete Main<br>
Default : No<br>
Forced : No<br>
<br>
Audio #8<br>
ID : 9<br>
Format : AAC LC<br>
Format/Info : Advanced Audio Codec Low Complexity<br>
Codec ID : A_AAC-2<br>
Duration : 2 h 0 min<br>
Bit rate : 125 kb/s<br>
Channel(s) : 2 channels<br>
Channel layout : L R<br>
Sampling rate : 48.0 kHz<br>
Frame rate : 46.875 FPS (1024 SPF)<br>
Compression mode : Lossy<br>
Stream size : 108 MiB (1%)<br>
Language : Hungarian<br>
Default : No<br>
Forced : No<br>
<br>
Audio #9<br>
ID : 10<br>
Format : E-AC-3<br>
Format/Info : Enhanced AC-3<br>
Commercial name : Dolby Digital Plus<br>
Codec ID : A_EAC3<br>
Duration : 2 h 0 min<br>
Bit rate mode : Constant<br>
Bit rate : 256 kb/s<br>
Channel(s) : 6 channels<br>
Channel layout : L R C LFE Ls Rs<br>
Sampling rate : 48.0 kHz<br>
Frame rate : 31.250 FPS (1536 SPF)<br>
Compression mode : Lossy<br>
Stream size : 220 MiB (3%)<br>
Language : Italian<br>
Service kind : Complete Main<br>
Default : No<br>
Forced : No<br>
<br>
Audio #10<br>
ID : 11<br>
Format : E-AC-3<br>
Format/Info : Enhanced AC-3<br>
Commercial name : Dolby Digital Plus<br>
Codec ID : A_EAC3<br>
Duration : 2 h 0 min<br>
Bit rate mode : Constant<br>
Bit rate : 256 kb/s<br>
Channel(s) : 6 channels<br>
Channel layout : L R C LFE Ls Rs<br>
Sampling rate : 48.0 kHz<br>
Frame rate : 31.250 FPS (1536 SPF)<br>
Compression mode : Lossy<br>
Stream size : 220 MiB (3%)<br>
Language : Japanese<br>
Service kind : Complete Main<br>
Default : No<br>
Forced : No<br>
<br>
Audio #11<br>
ID : 12<br>
Format : E-AC-3<br>
Format/Info : Enhanced AC-3<br>
Commercial name : Dolby Digital Plus<br>
Codec ID : A_EAC3<br>
Duration : 2 h 0 min<br>
Bit rate mode : Constant<br>
Bit rate : 256 kb/s<br>
Channel(s) : 6 channels<br>
Channel layout : L R C LFE Ls Rs<br>
Sampling rate : 48.0 kHz<br>
Frame rate : 31.250 FPS (1536 SPF)<br>
Compression mode : Lossy<br>
Stream size : 220 MiB (3%)<br>
Language : Polish<br>
Service kind : Complete Main<br>
Default : No<br>
Forced : No<br>
<br>
Audio #12<br>
ID : 13<br>
Format : E-AC-3<br>
Format/Info : Enhanced AC-3<br>
Commercial name : Dolby Digital Plus<br>
Codec ID : A_EAC3<br>
Duration : 2 h 0 min<br>
Bit rate mode : Constant<br>
Bit rate : 256 kb/s<br>
Channel(s) : 6 channels<br>
Channel layout : L R C LFE Ls Rs<br>
Sampling rate : 48.0 kHz<br>
Frame rate : 31.250 FPS (1536 SPF)<br>
Compression mode : Lossy<br>
Stream size : 220 MiB (3%)<br>
Title : Brazilian<br>
Language : Portuguese<br>
Service kind : Complete Main<br>
Default : No<br>
Forced : No<br>
<br>
Audio #13<br>
ID : 14<br>
Format : AAC LC<br>
Format/Info : Advanced Audio Codec Low Complexity<br>
Codec ID : A_AAC-2<br>
Duration : 2 h 0 min<br>
Bit rate : 125 kb/s<br>
Channel(s) : 2 channels<br>
Channel layout : L R<br>
Sampling rate : 48.0 kHz<br>
Frame rate : 46.875 FPS (1024 SPF)<br>
Compression mode : Lossy<br>
Stream size : 108 MiB (1%)<br>
Language : Turkish<br>
Default : No<br>
Forced : No<br>
<br>
Text #1<br>
ID : 15<br>
Format : UTF-8<br>
Codec ID : S_TEXT/UTF8<br>
Codec ID/Info : UTF-8 Plain Text<br>
Duration : 1 h 58 min<br>
Bit rate : 55 b/s<br>
Frame rate : 0.238 FPS<br>
Count of elements : 1693<br>
Stream size : 48.3 KiB (0%)<br>
Title : SDH<br>
Language : English<br>
Default : No<br>
Forced : No<br>
<br>
Text #2<br>
ID : 16<br>
Format : UTF-8<br>
Codec ID : S_TEXT/UTF8<br>
Codec ID/Info : UTF-8 Plain Text<br>
Duration : 1 h 54 min<br>
Bit rate : 37 b/s<br>
Frame rate : 0.158 FPS<br>
Count of elements : 1087<br>
Stream size : 31.2 KiB (0%)<br>
Language : Czech<br>
Default : No<br>
Forced : No<br>
<br>
Text #3<br>
ID : 17<br>
Format : UTF-8<br>
Codec ID : S_TEXT/UTF8<br>
Codec ID/Info : UTF-8 Plain Text<br>
Duration : 1 h 54 min<br>
Bit rate : 37 b/s<br>
Frame rate : 0.122 FPS<br>
Count of elements : 842<br>
Stream size : 31.4 KiB (0%)<br>
Language : Danish<br>
Default : No<br>
Forced : No<br>
<br>
Text #4<br>
ID : 18<br>
Format : UTF-8<br>
Codec ID : S_TEXT/UTF8<br>
Codec ID/Info : UTF-8 Plain Text<br>
Duration : 1 h 54 min<br>
Bit rate : 1 b/s<br>
Frame rate : 0.006 FPS<br>
Count of elements : 41<br>
Stream size : 1.24 KiB (0%)<br>
Title : Forced<br>
Language : German<br>
Default : No<br>
Forced : Yes<br>
<br>
Text #5<br>
ID : 19<br>
Format : UTF-8<br>
Codec ID : S_TEXT/UTF8<br>
Codec ID/Info : UTF-8 Plain Text<br>
Duration : 1 h 54 min<br>
Bit rate : 47 b/s<br>
Frame rate : 0.158 FPS<br>
Count of elements : 1089<br>
Stream size : 39.8 KiB (0%)<br>
Language : German<br>
Default : No<br>
Forced : No<br>
<br>
Text #6<br>
ID : 20<br>
Format : UTF-8<br>
Codec ID : S_TEXT/UTF8<br>
Codec ID/Info : UTF-8 Plain Text<br>
Duration : 1 h 57 min<br>
Bit rate : 52 b/s<br>
Frame rate : 0.149 FPS<br>
Count of elements : 1050<br>
Stream size : 45.1 KiB (0%)<br>
Language : Greek<br>
Default : No<br>
Forced : No<br>
<br>
Text #7<br>
ID : 21<br>
Format : UTF-8<br>
Codec ID : S_TEXT/UTF8<br>
Codec ID/Info : UTF-8 Plain Text<br>
Duration : 1 h 40 min<br>
Bit rate : 1 b/s<br>
Frame rate : 0.005 FPS<br>
Count of elements : 30<br>
Stream size : 826 Bytes (0%)<br>
Title : Latin American (Forced)<br>
Language : Spanish<br>
Default : No<br>
Forced : Yes<br>
<br>
Text #8<br>
ID : 22<br>
Format : UTF-8<br>
Codec ID : S_TEXT/UTF8<br>
Codec ID/Info : UTF-8 Plain Text<br>
Duration : 1 h 54 min<br>
Bit rate : 45 b/s<br>
Frame rate : 0.159 FPS<br>
Count of elements : 1097<br>
Stream size : 38.2 KiB (0%)<br>
Title : Latin American<br>
Language : Spanish<br>
Default : No<br>
Forced : No<br>
<br>
Text #9<br>
ID : 23<br>
Format : UTF-8<br>
Codec ID : S_TEXT/UTF8<br>
Codec ID/Info : UTF-8 Plain Text<br>
Duration : 1 h 54 min<br>
Bit rate : 1 b/s<br>
Frame rate : 0.006 FPS<br>
Count of elements : 41<br>
Stream size : 1.09 KiB (0%)<br>
Title : European (Forced)<br>
Language : Spanish<br>
Default : No<br>
Forced : Yes<br>
<br>
Text #10<br>
ID : 24<br>
Format : UTF-8<br>
Codec ID : S_TEXT/UTF8<br>
Codec ID/Info : UTF-8 Plain Text<br>
Duration : 1 h 54 min<br>
Bit rate : 33 b/s<br>
Frame rate : 0.160 FPS<br>
Count of elements : 1102<br>
Stream size : 28.5 KiB (0%)<br>
Title : European<br>
Language : Spanish<br>
Default : No<br>
Forced : No<br>
<br>
Text #11<br>
ID : 25<br>
Format : UTF-8<br>
Codec ID : S_TEXT/UTF8<br>
Codec ID/Info : UTF-8 Plain Text<br>
Duration : 1 h 54 min<br>
Bit rate : 35 b/s<br>
Frame rate : 0.112 FPS<br>
Count of elements : 769<br>
Stream size : 29.8 KiB (0%)<br>
Language : Finnish<br>
Default : No<br>
Forced : No<br>
<br>
Text #12<br>
ID : 26<br>
Format : UTF-8<br>
Codec ID : S_TEXT/UTF8<br>
Codec ID/Info : UTF-8 Plain Text<br>
Duration : 1 h 58 min<br>
Bit rate : 1 b/s<br>
Frame rate : 0.007 FPS<br>
Count of elements : 50<br>
Stream size : 1.29 KiB (0%)<br>
Title : Forced<br>
Language : French<br>
Default : No<br>
Forced : Yes<br>
<br>
Text #13<br>
ID : 27<br>
Format : UTF-8<br>
Codec ID : S_TEXT/UTF8<br>
Codec ID/Info : UTF-8 Plain Text<br>
Duration : 1 h 58 min<br>
Bit rate : 37 b/s<br>
Frame rate : 0.155 FPS<br>
Count of elements : 1105<br>
Stream size : 33.1 KiB (0%)<br>
Language : French<br>
Default : No<br>
Forced : No<br>
<br>
Text #14<br>
ID : 28<br>
Format : UTF-8<br>
Codec ID : S_TEXT/UTF8<br>
Codec ID/Info : UTF-8 Plain Text<br>
Duration : 1 h 59 min<br>
Bit rate : 32 b/s<br>
Frame rate : 0.154 FPS<br>
Count of elements : 1099<br>
Stream size : 28.5 KiB (0%)<br>
Language : Hungarian<br>
Default : No<br>
Forced : No<br>
<br>
Text #15<br>
ID : 29<br>
Format : UTF-8<br>
Codec ID : S_TEXT/UTF8<br>
Codec ID/Info : UTF-8 Plain Text<br>
Duration : 1 h 57 min<br>
Bit rate : 41 b/s<br>
Frame rate : 0.155 FPS<br>
Count of elements : 1090<br>
Stream size : 36.0 KiB (0%)<br>
Language : Icelandic<br>
Default : No<br>
Forced : No<br>
<br>
Text #16<br>
ID : 30<br>
Format : UTF-8<br>
Codec ID : S_TEXT/UTF8<br>
Codec ID/Info : UTF-8 Plain Text<br>
Duration : 1 h 54 min<br>
Bit rate : 1 b/s<br>
Frame rate : 0.007 FPS<br>
Count of elements : 45<br>
Stream size : 1.26 KiB (0%)<br>
Title : Forced<br>
Language : Italian<br>
Default : No<br>
Forced : Yes<br>
<br>
Text #17<br>
ID : 31<br>
Format : UTF-8<br>
Codec ID : S_TEXT/UTF8<br>
Codec ID/Info : UTF-8 Plain Text<br>
Duration : 1 h 54 min<br>
Bit rate : 40 b/s<br>
Frame rate : 0.160 FPS<br>
Count of elements : 1104<br>
Stream size : 33.6 KiB (0%)<br>
Language : Italian<br>
Default : No<br>
Forced : No<br>
<br>
Text #18<br>
ID : 32<br>
Format : UTF-8<br>
Codec ID : S_TEXT/UTF8<br>
Codec ID/Info : UTF-8 Plain Text<br>
Duration : 1 h 40 min<br>
Bit rate : 1 b/s<br>
Frame rate : 0.004 FPS<br>
Count of elements : 25<br>
Stream size : 771 Bytes (0%)<br>
Title : Forced<br>
Language : Japanese<br>
Default : No<br>
Forced : Yes<br>
<br>
Text #19<br>
ID : 33<br>
Format : UTF-8<br>
Codec ID : S_TEXT/UTF8<br>
Codec ID/Info : UTF-8 Plain Text<br>
Duration : 1 h 54 min<br>
Bit rate : 35 b/s<br>
Frame rate : 0.157 FPS<br>
Count of elements : 1083<br>
Stream size : 29.5 KiB (0%)<br>
Language : Japanese<br>
Default : No<br>
Forced : No<br>
<br>
Text #20<br>
ID : 34<br>
Format : UTF-8<br>
Codec ID : S_TEXT/UTF8<br>
Codec ID/Info : UTF-8 Plain Text<br>
Duration : 1 h 54 min<br>
Bit rate : 35 b/s<br>
Frame rate : 0.161 FPS<br>
Count of elements : 1106<br>
Stream size : 30.1 KiB (0%)<br>
Language : Korean<br>
Default : No<br>
Forced : No<br>
<br>
Text #21<br>
ID : 35<br>
Format : UTF-8<br>
Codec ID : S_TEXT/UTF8<br>
Codec ID/Info : UTF-8 Plain Text<br>
Duration : 1 h 53 min<br>
Bit rate : 36 b/s<br>
Frame rate : 0.113 FPS<br>
Count of elements : 766<br>
Stream size : 30.1 KiB (0%)<br>
Language : Dutch<br>
Default : No<br>
Forced : No<br>
<br>
Text #22<br>
ID : 36<br>
Format : UTF-8<br>
Codec ID : S_TEXT/UTF8<br>
Codec ID/Info : UTF-8 Plain Text<br>
Duration : 1 h 54 min<br>
Bit rate : 37 b/s<br>
Frame rate : 0.123 FPS<br>
Count of elements : 846<br>
Stream size : 31.8 KiB (0%)<br>
Language : Norwegian<br>
Default : No<br>
Forced : No<br>
<br>
Text #23<br>
ID : 37<br>
Format : UTF-8<br>
Codec ID : S_TEXT/UTF8<br>
Codec ID/Info : UTF-8 Plain Text<br>
Duration : 11 min 39 s<br>
Bit rate : 0 b/s<br>
Frame rate : 0.003 FPS<br>
Count of elements : 2<br>
Stream size : 75.0 Bytes (0%)<br>
Title : Forced<br>
Language : Polish<br>
Default : No<br>
Forced : Yes<br>
<br>
Text #24<br>
ID : 38<br>
Format : UTF-8<br>
Codec ID : S_TEXT/UTF8<br>
Codec ID/Info : UTF-8 Plain Text<br>
Duration : 1 h 57 min<br>
Bit rate : 29 b/s<br>
Frame rate : 0.148 FPS<br>
Count of elements : 1046<br>
Stream size : 25.8 KiB (0%)<br>
Language : Polish<br>
Default : No<br>
Forced : No<br>
<br>
Text #25<br>
ID : 39<br>
Format : UTF-8<br>
Codec ID : S_TEXT/UTF8<br>
Codec ID/Info : UTF-8 Plain Text<br>
Duration : 1 h 54 min<br>
Bit rate : 37 b/s<br>
Frame rate : 0.159 FPS<br>
Count of elements : 1096<br>
Stream size : 31.5 KiB (0%)<br>
Title : Brazilian<br>
Language : Portuguese<br>
Default : No<br>
Forced : No<br>
<br>
Text #26<br>
ID : 40<br>
Format : UTF-8<br>
Codec ID : S_TEXT/UTF8<br>
Codec ID/Info : UTF-8 Plain Text<br>
Duration : 1 h 50 min<br>
Bit rate : 0 b/s<br>
Frame rate : 0.005 FPS<br>
Count of elements : 32<br>
Stream size : 687 Bytes (0%)<br>
Title : Brazilian (Forced)<br>
Language : Portuguese<br>
Default : No<br>
Forced : Yes<br>
<br>
Text #27<br>
ID : 41<br>
Format : UTF-8<br>
Codec ID : S_TEXT/UTF8<br>
Codec ID/Info : UTF-8 Plain Text<br>
Duration : 1 h 57 min<br>
Bit rate : 39 b/s<br>
Frame rate : 0.158 FPS<br>
Count of elements : 1114<br>
Stream size : 33.6 KiB (0%)<br>
Title : European<br>
Language : Portuguese<br>
Default : No<br>
Forced : No<br>
<br>
Text #28<br>
ID : 42<br>
Format : UTF-8<br>
Codec ID : S_TEXT/UTF8<br>
Codec ID/Info : UTF-8 Plain Text<br>
Duration : 1 h 59 min<br>
Bit rate : 41 b/s<br>
Frame rate : 0.159 FPS<br>
Count of elements : 1138<br>
Stream size : 35.9 KiB (0%)<br>
Language : Romanian<br>
Default : No<br>
Forced : No<br>
<br>
Text #29<br>
ID : 43<br>
Format : UTF-8<br>
Codec ID : S_TEXT/UTF8<br>
Codec ID/Info : UTF-8 Plain Text<br>
Duration : 1 h 54 min<br>
Bit rate : 35 b/s<br>
Frame rate : 0.111 FPS<br>
Count of elements : 768<br>
Stream size : 30.2 KiB (0%)<br>
Language : Swedish<br>
Default : No<br>
Forced : No<br>
<br>
Text #30<br>
ID : 44<br>
Format : UTF-8<br>
Codec ID : S_TEXT/UTF8<br>
Codec ID/Info : UTF-8 Plain Text<br>
Duration : 1 h 53 min<br>
Bit rate : 50 b/s<br>
Frame rate : 0.138 FPS<br>
Count of elements : 943<br>
Stream size : 42.2 KiB (0%)<br>
Language : Turkish<br>
Default : No<br>
Forced : No<br>
<br>
Text #31<br>
ID : 45<br>
Format : UTF-8<br>
Codec ID : S_TEXT/UTF8<br>
Codec ID/Info : UTF-8 Plain Text<br>
Duration : 1 h 53 min<br>
Bit rate : 37 b/s<br>
Frame rate : 0.149 FPS<br>
Count of elements : 1011<br>
Stream size : 30.8 KiB (0%)<br>
Title : Traditional, Hong Kong<br>
Language : Chinese<br>
Default : No<br>
Forced : No<br>
<br>
Text #32<br>
ID : 46<br>
Format : UTF-8<br>
Codec ID : S_TEXT/UTF8<br>
Codec ID/Info : UTF-8 Plain Text<br>
Duration : 1 h 57 min<br>
Bit rate : 38 b/s<br>
Frame rate : 0.157 FPS<br>
Count of elements : 1113<br>
Stream size : 33.7 KiB (0%)<br>
Title : Simplified<br>
Language : Chinese<br>
Default : No<br>
Forced : No<br>
<br>
Text #33<br>
ID : 47<br>
Format : UTF-8<br>
Codec ID : S_TEXT/UTF8<br>
Codec ID/Info : UTF-8 Plain Text<br>
Duration : 1 h 53 min<br>
Bit rate : 38 b/s<br>
Frame rate : 0.151 FPS<br>
Count of elements : 1026<br>
Stream size : 32.1 KiB (0%)<br>
Title : Traditional<br>
Language : Chinese<br>
Default : No<br>
Forced : No<br>
<br>
Menu<br>
00:00:22.564 : en:Intro<br>
00:02:15.802 : en:Scene 1<br>
00:22:31.435 : en:Scene 2<br>
00:30:48.348 : en:Scene 3<br>
00:40:42.943 : en:Scene 4<br>
00:50:09.218 : en:Scene 5<br>
01:00:22.456 : en:Scene 6<br>
01:08:00.956 : en:Scene 7<br>
01:18:50.355 : en:Scene 8<br>
01:28:26.890 : en:Scene 9<br>
01:37:19.506 : en:Scene 10<br>
01:46:55.499 : en:Scene 11<br>
01:55:48.448 : en:Credits</div>
</div><br>
<b>Screenshots</b><br>
<img src="https://i.imgur.com/2qioElj.png" class="bbCodeImage LbImage" alt="[​IMG]" data-url="https://i.imgur.com/2qioElj.png" style=""><br>
<br>
<b>Download</b><br>
<div class="bbCodeBlock bbCodeVfcHH HiddenContent">
<div class="attribution type">Hidden Content:</div>
<blockquote>You must reply before you can see the hidden data contained here.</blockquote>
</div></div>
<div class="messageTextEndMarker">&nbsp;</div>
</blockquote>
</article>]]></description>
                <author><![CDATA[Samuel]]></author>
                </item>

                
                <item>
                <title><![CDATA[【Requests】[REQ CAP] - More K-POP and J-POP in DSD128/256 Please!!!]]></title>
                <link><![CDATA[https://sharemania.us/threads/more-k-pop-and-j-pop-in-dsd128-256-please.234445/]]></link>
                <description><![CDATA[<article>
<blockquote class="messageText SelectQuoteContainer ugc baseHtml">
Thanks
<div class="messageTextEndMarker">&nbsp;</div>
</blockquote>
</article>]]></description>
                <author><![CDATA[juanmanuel7068]]></author>
                </item>

                </channel></rss>